<svg width="200" height="120" viewBox="0 0 200 120" fill="none" xmlns="http://www.w3.org/2000/svg">
  <path d="M172.5 79.5C176 68.3 171.5 55.5 162.5 48.5C153.5 41.5 141.5 39.5 130.5 43C129.7 30.8 124 19.3 114.5 11.5C105 3.7 92.7 0.5 80.5 2.5C68.3 4.5 57.8 11.7 51.5 22.5C45.2 33.3 43.7 46.7 47.5 58.5C38.3 61.7 31 69.3 28.5 79C26 88.7 28.7 99 35.5 106.5C42.3 114 53 117.5 63 115.5C73 113.5 81.3 106.5 85 97.5C88.2 99.5 91.8 100.7 95.5 101C99.2 101.3 103 100.8 106.5 99.5C117.5 105.5 131 106 142 101C153 96 160.3 85.8 162 74.5C166 76.5 170.3 77.2 174.5 76.5C178.7 75.8 182.8 73.7 186 70.5" fill="white"/>
</svg>
