<svg width="240" height="140" viewBox="0 0 240 140" fill="none" xmlns="http://www.w3.org/2000/svg">
  <path d="M218 92.5C224 78.5 219.2 62 207 52.5C194.8 43 177.7 41 162 47C160.7 30.7 152 15.7 138 5C124 -5.7 105.7 -9.5 88.5 -6C71.3 -2.5 56.3 6.5 46.5 20.5C36.7 34.5 33 52.3 36 69C27.3 74.7 21.7 83.7 20 94C18.3 104.3 21 115 27.5 123.5C34 132 44 137.5 54.5 138.5C65 139.5 75.5 136 83 129C88.7 132.3 95.3 134 102 134C108.7 134 115.3 132.3 121 129C130.7 136 143.3 138.3 155.5 135.5C167.7 132.7 178 125 184 114.5C191 119 199.7 120.3 208 118.5C216.3 116.7 223.7 111.7 228.5 104.5" fill="white"/>
</svg>
